<svg xmlns="http://www.w3.org/2000/svg" style="isolation:isolate" viewBox="0 0 250 250" width="250pt" height="250pt"><defs><clipPath id="a"><path d="M0 0h250v250H0z"/></clipPath></defs><g style="isolation:isolate" clip-path="url(#a)"><path d="M25 0h200c13.8 0 25 11.2 25 25v200c0 13.8-11.2 25-25 25H25c-13.8 0-25-11.2-25-25V25C0 11.2 11.2 0 25 0Z" style="stroke:none;fill:#7952b3;stroke-miterlimit:10"/><path d="M91.75 92.8V71.47h18.78c1.79 0 3.51.15 5.17.45 1.66.3 3.13.83 4.41 1.6a8.5 8.5 0 0 1 3.06 3.19 10.6 10.6 0 0 1 1.16 5.24c0 3.83-1.16 6.6-3.45 8.3-2.3 1.7-5.24 2.55-8.82 2.55h-20.3ZM71.7 55.9v91.2h44.2c4.08 0 8.06-.51 11.94-1.53a31.94 31.94 0 0 0 10.34-4.73 23.28 23.28 0 0 0 7.22-8.24c1.79-3.36 2.68-7.34 2.68-11.94 0-5.7-1.38-10.58-4.15-14.63-2.77-4.04-6.96-6.87-12.58-8.5 4.09-1.95 7.18-4.46 9.26-7.53 2.09-3.06 3.13-6.9 3.13-11.5 0-4.25-.7-7.83-2.1-10.72a17.53 17.53 0 0 0-5.95-6.96c-2.55-1.75-5.62-3-9.2-3.77a56.75 56.75 0 0 0-11.87-1.15H71.7Zm20.05 75.62v-25.04h21.84c4.35 0 7.84 1 10.48 3 2.64 2 3.96 5.34 3.96 10.03 0 2.38-.4 4.34-1.21 5.88a9.64 9.64 0 0 1-3.26 3.63c-1.36.9-2.94 1.54-4.73 1.92-1.79.38-3.66.58-5.62.58H91.75ZM235 220.81l-14.2 14.2-66.62-66.62 14.2-14.2L235 220.8Z" fill="#FFF"/><path d="M190.25 99.9a85.33 85.33 0 0 1-85.34 85.34 85.27 85.27 0 0 1-33.22-6.7 85.41 85.41 0 0 1-27.12-18.3 85.33 85.33 0 0 1 0-120.68 85.4 85.4 0 0 1 27.12-18.3 85.33 85.33 0 0 1 93.56 18.3c7.8 7.77 14 16.99 18.3 27.12a85.27 85.27 0 0 1 6.7 33.22Zm-10.04 0a75.33 75.33 0 0 1-104.6 69.39 75.33 75.33 0 0 1-40.08-98.7 75.16 75.16 0 0 1 16.14-23.93A75.17 75.17 0 0 1 104.9 24.6a75.33 75.33 0 0 1 75.3 75.3Z" fill-rule="evenodd" fill="#FFF"/></g></svg>
