<svg xmlns="http://www.w3.org/2000/svg" style="isolation:isolate" viewBox="0 0 250 250" width="250pt" height="250pt"><defs><clipPath id="a"><path d="M0 0h250v250H0z"/></clipPath></defs><g style="isolation:isolate" clip-path="url(#a)"><path d="M25 0h200c13.8 0 25 11.2 25 25v200c0 13.8-11.2 25-25 25H25c-13.8 0-25-11.2-25-25V25C0 11.2 11.2 0 25 0Z" style="stroke:none;fill:#7952b3;stroke-miterlimit:10"/><path d="M189.56 101.39a82.82 82.82 0 0 1-14.13 46.43 83.18 83.18 0 0 1-69.19 36.89 83.22 83.22 0 0 1-32.43-6.55 83.28 83.28 0 0 1-26.48-17.86 83.31 83.31 0 0 1 0-117.83 83.42 83.42 0 0 1 26.48-17.85 83.36 83.36 0 0 1 115.75 76.77Zm-16 0a66.82 66.82 0 0 1-11.41 37.51 67.21 67.21 0 0 1-55.91 29.81 67.17 67.17 0 0 1-47.6-19.72 67.28 67.28 0 0 1-19.71-47.6c-.01-9 1.79-17.91 5.28-26.2a67.51 67.51 0 0 1 35.83-35.83 67.34 67.34 0 0 1 93.52 62.03Z" fill-rule="evenodd" fill="#FFF"/><path d="M228.23 214.77a9.4 9.4 0 1 1-13.31 13.32l-62.47-62.48a9.38 9.38 0 0 1 0-13.31 9.38 9.38 0 0 1 13.31 0l62.47 62.47ZM94.18 93.3V73.42h17.5c1.66 0 3.27.14 4.81.42 1.55.27 2.92.77 4.1 1.48a7.94 7.94 0 0 1 2.87 2.98 9.88 9.88 0 0 1 1.07 4.88c0 3.57-1.07 6.15-3.22 7.74-2.14 1.58-4.88 2.38-8.2 2.38H94.17ZM75.49 58.9v84.98h41.18c3.81 0 7.52-.48 11.13-1.43a29.74 29.74 0 0 0 9.64-4.4 21.68 21.68 0 0 0 6.72-7.68c1.67-3.13 2.5-6.84 2.5-11.13 0-5.31-1.28-9.86-3.86-13.63-2.58-3.76-6.5-6.4-11.73-7.91 3.81-1.82 6.69-4.17 8.63-7.02 1.95-2.86 2.92-6.43 2.92-10.71 0-3.97-.66-7.3-1.97-10a16.33 16.33 0 0 0-5.53-6.49 23.88 23.88 0 0 0-8.57-3.5 52.93 52.93 0 0 0-11.07-1.08H75.5Zm18.69 70.46v-23.33h20.35c4.05 0 7.3.93 9.76 2.8 2.46 1.86 3.69 4.98 3.69 9.34 0 2.22-.38 4.05-1.13 5.48a9 9 0 0 1-3.04 3.39 12.88 12.88 0 0 1-4.4 1.78c-1.67.36-3.41.54-5.24.54h-20Z" fill="#FFF"/></g></svg>
