<svg xmlns="http://www.w3.org/2000/svg" style="isolation:isolate" viewBox="0 0 250 250" width="250pt" height="250pt"><defs><clipPath id="a"><path d="M0 0h250v250H0z"/></clipPath></defs><g clip-path="url(#a)"><path d="M87.6 89.07V65.25h20.98c2 0 3.92.17 5.77.5 1.86.33 3.5.93 4.92 1.78a9.51 9.51 0 0 1 3.43 3.57 11.85 11.85 0 0 1 1.28 5.85c0 4.28-1.28 7.37-3.85 9.27-2.57 1.9-5.85 2.85-9.84 2.85H87.6ZM65.22 47.85v101.84h49.36c4.56 0 9-.57 13.33-1.71a35.67 35.67 0 0 0 11.56-5.28 26 26 0 0 0 8.05-9.2c2-3.75 3-8.2 3-13.33 0-6.38-1.54-11.82-4.63-16.34-3.1-4.51-7.78-7.67-14.06-9.48 4.57-2.19 8.02-5 10.35-8.42s3.49-7.7 3.49-12.83c0-4.76-.78-8.75-2.35-11.99a19.57 19.57 0 0 0-6.64-7.77 28.61 28.61 0 0 0-10.27-4.2 63.4 63.4 0 0 0-13.26-1.3H65.2Zm22.4 84.44v-27.96H112c4.85 0 8.75 1.12 11.7 3.36 2.94 2.23 4.42 5.96 4.42 11.2 0 2.66-.46 4.84-1.36 6.55a10.76 10.76 0 0 1-3.64 4.07c-1.52 1-3.28 1.71-5.27 2.14-2 .43-4.1.64-6.28.64H87.61Z" fill="#563D7C" style="isolation:isolate"/><g style="isolation:isolate" fill="#563D7C"><path d="m247.57 232.02-15.85 15.85-74.4-74.39 15.86-15.86 74.39 74.4Z"/><path d="M197.6 97a95.28 95.28 0 0 1-95.3 95.3 95.18 95.18 0 0 1-37.1-7.5 95.37 95.37 0 0 1-30.28-20.42A95.28 95.28 0 0 1 7 97a95.22 95.22 0 0 1 7.49-37.1A95.38 95.38 0 0 1 34.92 29.6 95.35 95.35 0 0 1 65.2 9.2a95.2 95.2 0 0 1 37.1-7.5 95.28 95.28 0 0 1 67.38 27.92 95.38 95.38 0 0 1 20.43 30.29A95.2 95.2 0 0 1 197.6 97Zm-11.21 0a84.12 84.12 0 0 1-116.82 77.48A84.12 84.12 0 0 1 24.81 64.27a83.94 83.94 0 0 1 18.03-26.73 83.92 83.92 0 0 1 59.46-24.63A84.12 84.12 0 0 1 186.39 97Z" fill-rule="evenodd"/></g></g></svg>
